<mxfile host="app.diagrams.net" modified="2023-11-02T15:47:23.587Z" agent="Mozilla/5.0 (Windows NT 10.0; Win64; x64) AppleWebKit/537.36 (KHTML, like Gecko) Chrome/118.0.0.0 Safari/537.36" etag="c1DO6wJOalJRSHZlBqEw" version="22.0.8" type="device">
  <diagram name="Page-1" id="Mm0hC2-zrbVgDmfwnK1h">
    <mxGraphModel dx="673" dy="-323" grid="0" gridSize="10" guides="1" tooltips="1" connect="1" arrows="1" fold="1" page="1" pageScale="1" pageWidth="827" pageHeight="1169" math="0" shadow="0">
      <root>
        <mxCell id="0" />
        <mxCell id="1" parent="0" />
        <mxCell id="4-QGM9Shg0OShdlyaHth-956" value="&lt;font style=&quot;font-size: 14px;&quot;&gt;703:card&lt;br&gt;no&lt;/font&gt;" style="rounded=0;whiteSpace=wrap;html=1;" vertex="1" parent="1">
          <mxGeometry x="1873.000048828125" y="1653.99990234375" width="120" height="60" as="geometry" />
        </mxCell>
        <mxCell id="4-QGM9Shg0OShdlyaHth-957" value="&lt;font style=&quot;font-size: 14px;&quot;&gt;big mom:&lt;br&gt;學生&lt;/font&gt;" style="rounded=0;whiteSpace=wrap;html=1;" vertex="1" parent="1">
          <mxGeometry x="1616.000048828125" y="1653.99990234375" width="120" height="60" as="geometry" />
        </mxCell>
        <mxCell id="4-QGM9Shg0OShdlyaHth-958" value="&lt;font style=&quot;font-size: 14px;&quot;&gt;喬八:&lt;br&gt;一般用戶&lt;/font&gt;" style="rounded=0;whiteSpace=wrap;html=1;" vertex="1" parent="1">
          <mxGeometry x="1653.000048828125" y="1792.99990234375" width="120" height="60" as="geometry" />
        </mxCell>
        <mxCell id="4-QGM9Shg0OShdlyaHth-959" value="&lt;font style=&quot;font-size: 14px;&quot;&gt;索隆:&lt;br&gt;操作員&lt;/font&gt;" style="rounded=0;whiteSpace=wrap;html=1;" vertex="1" parent="1">
          <mxGeometry x="1881.000048828125" y="1792.99990234375" width="120" height="60" as="geometry" />
        </mxCell>
        <mxCell id="4-QGM9Shg0OShdlyaHth-960" value="路飛:&lt;br&gt;管理員" style="rounded=0;whiteSpace=wrap;html=1;" vertex="1" parent="1">
          <mxGeometry x="2112.000048828125" y="1792.99990234375" width="120" height="60" as="geometry" />
        </mxCell>
        <mxCell id="4-QGM9Shg0OShdlyaHth-961" value="&lt;font style=&quot;font-size: 14px;&quot;&gt;703上機:&lt;br&gt;online&lt;/font&gt;" style="rounded=0;whiteSpace=wrap;html=1;" vertex="1" parent="1">
          <mxGeometry x="1603.000048828125" y="1952.99990234375" width="120" height="60" as="geometry" />
        </mxCell>
        <mxCell id="4-QGM9Shg0OShdlyaHth-962" value="&lt;font style=&quot;font-size: 14px;&quot;&gt;703:充值&lt;/font&gt;" style="rounded=0;whiteSpace=wrap;html=1;" vertex="1" parent="1">
          <mxGeometry x="1881.000048828125" y="1949.99990234375" width="120" height="60" as="geometry" />
        </mxCell>
        <mxCell id="4-QGM9Shg0OShdlyaHth-963" value="&lt;font style=&quot;font-size: 14px;&quot;&gt;今日帳單:&lt;br&gt;CheceDay&lt;/font&gt;" style="rounded=0;whiteSpace=wrap;html=1;" vertex="1" parent="1">
          <mxGeometry x="2139.000048828125" y="1949.99990234375" width="120" height="60" as="geometry" />
        </mxCell>
        <mxCell id="4-QGM9Shg0OShdlyaHth-964" value="" style="endArrow=none;html=1;rounded=0;fillColor=#fff2cc;strokeColor=#ff0000;" edge="1" parent="1" target="4-QGM9Shg0OShdlyaHth-960">
          <mxGeometry width="50" height="50" relative="1" as="geometry">
            <mxPoint x="1993.000048828125" y="1688.99990234375" as="sourcePoint" />
            <mxPoint x="2043.000048828125" y="1638.99990234375" as="targetPoint" />
          </mxGeometry>
        </mxCell>
        <mxCell id="4-QGM9Shg0OShdlyaHth-965" value="" style="endArrow=none;html=1;rounded=0;entryX=0.5;entryY=0;entryDx=0;entryDy=0;exitX=0.5;exitY=1;exitDx=0;exitDy=0;fillColor=#fff2cc;strokeColor=#ff0000;" edge="1" parent="1" source="4-QGM9Shg0OShdlyaHth-956" target="4-QGM9Shg0OShdlyaHth-959">
          <mxGeometry width="50" height="50" relative="1" as="geometry">
            <mxPoint x="2003.000048828125" y="1698.99990234375" as="sourcePoint" />
            <mxPoint x="2142.000048828125" y="1802.99990234375" as="targetPoint" />
          </mxGeometry>
        </mxCell>
        <mxCell id="4-QGM9Shg0OShdlyaHth-966" value="" style="endArrow=none;html=1;rounded=0;exitX=0.5;exitY=1;exitDx=0;exitDy=0;entryX=0.5;entryY=0;entryDx=0;entryDy=0;fillColor=#fff2cc;strokeColor=#ff0000;" edge="1" parent="1" source="4-QGM9Shg0OShdlyaHth-959" target="4-QGM9Shg0OShdlyaHth-962">
          <mxGeometry width="50" height="50" relative="1" as="geometry">
            <mxPoint x="2090.000048828125" y="1866.99990234375" as="sourcePoint" />
            <mxPoint x="2140.000048828125" y="1816.99990234375" as="targetPoint" />
          </mxGeometry>
        </mxCell>
        <mxCell id="4-QGM9Shg0OShdlyaHth-967" value="" style="endArrow=none;html=1;rounded=0;exitX=0.433;exitY=0;exitDx=0;exitDy=0;exitPerimeter=0;entryX=0.5;entryY=1;entryDx=0;entryDy=0;fillColor=#fff2cc;strokeColor=#ff0000;" edge="1" parent="1" source="4-QGM9Shg0OShdlyaHth-963" target="4-QGM9Shg0OShdlyaHth-960">
          <mxGeometry width="50" height="50" relative="1" as="geometry">
            <mxPoint x="2090.000048828125" y="1866.99990234375" as="sourcePoint" />
            <mxPoint x="2140.000048828125" y="1816.99990234375" as="targetPoint" />
          </mxGeometry>
        </mxCell>
        <mxCell id="4-QGM9Shg0OShdlyaHth-968" value="" style="endArrow=none;html=1;rounded=0;exitX=0.5;exitY=1;exitDx=0;exitDy=0;entryX=0.5;entryY=0;entryDx=0;entryDy=0;fillColor=#fff2cc;strokeColor=#ff0000;" edge="1" parent="1" source="4-QGM9Shg0OShdlyaHth-958" target="4-QGM9Shg0OShdlyaHth-961">
          <mxGeometry width="50" height="50" relative="1" as="geometry">
            <mxPoint x="1717.000048828125" y="1866.99990234375" as="sourcePoint" />
            <mxPoint x="1767.000048828125" y="1816.99990234375" as="targetPoint" />
          </mxGeometry>
        </mxCell>
        <mxCell id="4-QGM9Shg0OShdlyaHth-969" value="" style="endArrow=none;html=1;rounded=0;exitX=1;exitY=0.5;exitDx=0;exitDy=0;entryX=0;entryY=0.5;entryDx=0;entryDy=0;fillColor=#fff2cc;strokeColor=#ff0000;" edge="1" parent="1" source="4-QGM9Shg0OShdlyaHth-957" target="4-QGM9Shg0OShdlyaHth-956">
          <mxGeometry width="50" height="50" relative="1" as="geometry">
            <mxPoint x="1736.000048828125" y="1697.99990234375" as="sourcePoint" />
            <mxPoint x="1786.000048828125" y="1647.99990234375" as="targetPoint" />
          </mxGeometry>
        </mxCell>
        <mxCell id="4-QGM9Shg0OShdlyaHth-970" value="" style="endArrow=none;html=1;rounded=0;entryX=0;entryY=1;entryDx=0;entryDy=0;exitX=0.75;exitY=0;exitDx=0;exitDy=0;fillColor=#fff2cc;strokeColor=#ff0000;" edge="1" parent="1" source="4-QGM9Shg0OShdlyaHth-958" target="4-QGM9Shg0OShdlyaHth-956">
          <mxGeometry width="50" height="50" relative="1" as="geometry">
            <mxPoint x="1717.000048828125" y="1866.99990234375" as="sourcePoint" />
            <mxPoint x="1767.000048828125" y="1816.99990234375" as="targetPoint" />
          </mxGeometry>
        </mxCell>
      </root>
    </mxGraphModel>
  </diagram>
</mxfile>
